<svg version="1.1" id="Layer_1" xmlns="http://www.w3.org/2000/svg" xmlns:xlink="http://www.w3.org/1999/xlink" x="0px" y="0px"
	 width="100%" viewBox="0 0 1024 1024" enable-background="new 0 0 1024 1024" xml:space="preserve">
<path fill="#000000" opacity="1.000000" stroke="none" 
	d="
M663.949463,145.780411 
	C660.278809,157.435379 656.812683,168.737183 653.126953,179.966904 
	C652.382446,182.235458 652.844727,186.269531 649.175354,185.866898 
	C645.584961,185.472916 641.697083,184.745987 639.986206,180.229248 
	C634.735657,166.367340 629.199646,152.613220 623.736389,138.832336 
	C620.734985,131.261093 617.656738,123.720276 614.564331,116.044746 
	C612.642822,116.967079 612.733215,118.632370 612.319214,119.928368 
	C607.608826,134.675003 602.813843,149.397552 598.380798,164.227966 
	C597.070435,168.611633 595.253967,169.785233 590.898132,168.175949 
	C587.091736,166.769638 584.559204,165.977966 586.300903,160.666397 
	C593.406128,138.997284 599.936890,117.140274 606.818176,95.396446 
	C607.485046,93.289093 607.097107,89.545341 610.686646,89.966980 
	C614.164490,90.375504 617.837585,90.908310 619.518311,95.235527 
	C626.813538,114.017532 634.331848,132.713013 641.790100,151.431534 
	C642.890991,154.194473 644.104919,156.912369 645.275818,159.673004 
	C647.248352,159.072525 647.076233,157.480927 647.430969,156.357880 
	C652.245178,141.119125 657.090881,125.888481 661.665771,110.577232 
	C662.849060,106.616905 664.708435,105.990204 668.235718,107.467743 
	C671.409668,108.797287 675.743835,108.387711 673.644409,114.387444 
	C670.073608,124.592064 667.227295,135.050217 663.949463,145.780411 
z"/>
<path fill="#000000" opacity="1.000000" stroke="none" 
	d="
M832.391724,635.631958 
	C836.564331,642.257751 836.538818,642.223816 830.389404,646.851013 
	C824.362610,651.385986 820.121033,657.265991 817.744690,664.420044 
	C814.120544,675.330566 818.520752,683.553467 830.253296,687.234558 
	C828.039001,676.493835 830.509949,667.027710 837.364441,658.743103 
	C841.982544,653.161499 847.750305,649.359436 854.915283,648.042175 
	C868.373047,645.567871 882.948975,653.815491 888.022949,666.616821 
	C893.870789,681.370483 887.080627,697.229614 870.100403,707.896606 
	C872.104919,710.029541 877.295044,710.208923 874.170654,715.449829 
	C870.574463,721.482178 871.003357,721.716125 864.538391,718.485168 
	C849.795837,711.117188 834.967285,703.916260 820.326721,696.351257 
	C812.271057,692.188782 806.760498,685.782837 805.132690,676.470947 
	C804.567322,673.236633 804.983826,670.153320 805.700134,667.083313 
	C808.731018,654.092651 815.376038,643.454102 826.517639,635.883240 
	C828.175842,634.756531 830.053040,632.891113 832.391724,635.631958 
M840.313904,675.955200 
	C836.633179,686.140076 843.863953,696.374695 852.921448,699.256226 
	C862.753418,702.384155 872.276794,697.396606 876.643311,687.001709 
	C881.013611,676.597717 877.668518,666.930298 868.012634,662.058838 
	C856.821350,656.412659 845.772034,661.682190 840.313904,675.955200 
z"/>
<path fill="#000000" opacity="1.000000" stroke="none" 
	d="
M129.329407,417.443420 
	C148.861984,419.602539 162.401596,433.572296 164.473999,452.368958 
	C165.649475,463.030487 162.843582,473.173737 161.951477,483.558655 
	C161.652939,487.033722 160.700150,490.476715 160.649307,493.943207 
	C160.573929,499.082367 157.965530,499.924042 153.584015,499.260742 
	C141.425980,497.420319 129.239883,495.765106 117.064301,494.040771 
	C106.205826,492.502930 95.360497,490.858917 84.479408,489.502106 
	C81.113655,489.082428 79.872414,488.047943 80.422516,484.434662 
	C82.248840,472.438507 82.974159,460.256439 85.784668,448.430969 
	C90.732430,427.612762 109.192520,414.472931 129.329407,417.443420 
M94.008293,467.217255 
	C93.750137,469.189209 93.764282,471.246552 93.178391,473.115784 
	C91.871414,477.285431 93.313728,478.434387 97.534828,478.920654 
	C113.869751,480.802582 130.163071,483.064941 146.442825,485.389191 
	C149.498337,485.825409 150.897873,484.872986 151.202301,482.041107 
	C152.123642,473.469971 154.186234,465.013824 153.700073,456.299530 
	C152.988388,443.542847 144.270996,433.291962 131.745377,430.578491 
	C117.632057,427.521088 105.689957,432.575684 99.508682,444.235748 
	C95.843750,451.149048 94.910866,458.725800 94.008293,467.217255 
z"/>
<path fill="#000000" opacity="1.000000" stroke="none" 
	d="
M819.672485,255.605652 
	C814.200500,265.832428 808.915161,275.741272 802.989441,286.850708 
	C812.658752,283.250153 821.041321,280.162262 829.397278,277.003754 
	C833.911560,275.297363 838.380554,273.470886 842.869568,271.697510 
	C850.426392,268.712219 851.590332,269.171356 855.641174,276.783630 
	C855.030640,278.655334 853.207520,278.823364 851.721741,279.395233 
	C834.634338,285.971619 817.498047,292.423431 800.470581,299.150787 
	C796.844360,300.583496 794.647278,299.774261 792.323303,296.928619 
	C789.981873,294.061646 788.381836,291.889771 790.682739,287.784180 
	C797.411987,275.776733 803.534546,263.429260 810.534546,249.986511 
	C796.742371,255.140030 784.090027,259.610596 771.666321,264.645538 
	C767.157043,266.473053 764.398499,265.779297 761.425842,262.090607 
	C759.258484,259.401093 758.547607,257.348480 760.310913,254.130890 
	C769.272644,237.777893 778.030762,221.313354 786.883362,204.900406 
	C787.498474,203.759888 787.950134,202.401443 789.461792,202.037628 
	C796.554138,206.596802 797.132629,208.650253 793.367310,215.562683 
	C786.846802,227.533463 780.349060,239.516663 773.139648,252.787109 
	C783.649780,248.922989 792.909485,245.539597 802.152771,242.111588 
	C806.990417,240.317490 811.867065,238.602066 816.596008,236.551010 
	C819.595947,235.249817 821.311768,236.535812 822.938843,238.697800 
	C824.581543,240.880463 827.059204,242.664841 824.810791,246.047363 
	C822.885010,248.944534 821.489319,252.194031 819.672485,255.605652 
z"/>
<path fill="#000000" opacity="1.000000" stroke="none" 
	d="
M364.522522,193.885956 
	C358.767883,195.858841 353.350708,194.993729 347.131012,193.820770 
	C350.748871,201.570267 353.783875,208.744492 357.406464,215.608597 
	C360.095459,220.703812 356.382050,221.439651 353.335236,223.066544 
	C350.249542,224.714218 348.145874,225.050446 346.336670,221.058807 
	C336.309326,198.935562 326.020905,176.930756 315.854187,154.870499 
	C313.686279,150.166412 317.555115,145.023361 322.778992,145.580734 
	C325.699463,145.892334 325.135529,149.413361 327.767029,150.737534 
	C330.646637,144.295883 335.015778,139.048859 341.513458,135.879166 
	C360.802551,126.469536 380.728058,135.977676 386.160583,157.185349 
	C390.281738,173.273697 381.942963,187.624680 364.522522,193.885956 
M335.393219,159.181534 
	C335.362274,161.341705 335.154266,163.516495 335.331299,165.659485 
	C336.058868,174.467300 343.490021,183.112869 351.448090,184.566010 
	C360.101471,186.146088 369.253357,181.556229 373.111633,173.701233 
	C378.116119,163.512634 372.488953,149.467804 361.845490,144.720566 
	C353.510162,141.002792 338.913055,145.241653 335.393219,159.181534 
z"/>
<path fill="#000000" opacity="1.000000" stroke="none" 
	d="
M873.144043,566.295471 
	C871.717712,567.505310 870.355347,567.318542 869.036987,567.330383 
	C863.104919,567.383545 862.482849,566.648865 862.878601,560.691772 
	C863.881409,545.594849 864.858215,530.496033 865.787415,515.394348 
	C866.208557,508.549316 866.158508,508.326843 872.957458,508.712219 
	C896.032959,510.020294 919.098267,511.506470 942.169067,512.898071 
	C945.291626,513.086426 947.071655,514.107361 946.821533,517.766541 
	C945.766357,533.204773 944.920044,548.657166 943.951538,564.101501 
	C943.737366,567.516724 943.511780,570.600220 938.468872,570.432373 
	C933.888428,570.279846 932.294128,568.716614 932.643494,564.180603 
	C933.498901,553.076904 933.926697,541.939819 934.812988,530.839050 
	C935.160095,526.490906 933.744934,524.799133 929.341125,524.848267 
	C924.861877,524.898254 920.350891,524.514282 915.900146,523.953125 
	C912.217163,523.488708 911.411072,525.002625 911.277039,528.376099 
	C910.874451,538.512451 909.961487,548.628967 909.584595,558.765747 
	C909.421021,563.164551 907.063110,563.353821 903.680237,563.232483 
	C899.805603,563.093567 898.438843,561.453613 898.754639,557.610291 
	C899.544189,548.002869 899.980103,538.366333 900.778076,528.759766 
	C901.102417,524.854919 900.047119,522.865906 895.786743,522.756531 
	C890.471619,522.620117 885.162598,522.082825 879.861938,521.598511 
	C876.200134,521.263916 876.403320,523.772278 876.257935,526.137634 
	C875.523438,538.088013 874.788086,550.038391 874.014832,561.986267 
	C873.929749,563.301880 873.599792,564.601624 873.144043,566.295471 
z"/>
<path fill="#000000" opacity="1.000000" stroke="none" 
	d="
M240.143402,761.976440 
	C233.857132,765.788513 232.352127,770.305054 235.639206,776.963989 
	C238.580719,782.922729 242.228958,788.529480 245.461899,794.349060 
	C246.832260,796.815857 248.114059,799.361450 249.130783,801.989380 
	C252.042725,809.515869 251.789490,816.586548 246.019043,822.928162 
	C239.820984,829.739746 232.266739,832.578186 223.522446,829.625854 
	C208.404572,824.521729 199.266861,813.281799 193.821411,798.701599 
	C193.007828,796.523315 193.475449,794.767151 195.927368,793.960449 
	C198.102875,793.244812 200.024414,791.711853 202.776031,791.877563 
	C205.173615,797.234070 207.147949,802.916565 210.935440,807.644470 
	C214.523987,812.123962 218.491486,816.131042 224.069580,818.024109 
	C228.272400,819.450317 232.227997,819.135620 235.672653,815.885864 
	C239.112747,812.640442 239.040421,808.880188 237.530457,804.871582 
	C234.984909,798.113770 230.559143,792.385132 227.151581,786.097046 
	C225.240906,782.571106 223.474426,779.022400 222.441620,775.117859 
	C218.511185,760.258301 231.853073,746.439331 246.777130,750.455933 
	C264.970520,755.352417 274.701477,768.758484 280.080872,785.854797 
	C281.449738,790.205322 276.862488,794.572327 272.193268,793.953247 
	C269.920929,793.651978 270.093353,791.706604 269.757599,790.142212 
	C267.608124,780.126709 262.448517,771.967712 254.344376,765.773193 
	C250.322220,762.698792 245.931793,760.259399 240.143402,761.976440 
z"/>
<path fill="#000000" opacity="1.000000" stroke="none" 
	d="
M127.531784,596.644531 
	C114.923439,598.561279 102.752495,600.436768 90.557709,602.141724 
	C88.560799,602.420898 85.816994,603.622498 84.590767,601.278381 
	C83.229805,598.676697 82.817345,595.504822 83.300812,592.563721 
	C83.623840,590.598572 85.841866,590.829529 87.464615,590.577698 
	C102.243256,588.283813 117.019676,585.975586 131.794952,583.660217 
	C132.423523,583.561768 133.034698,583.352417 133.607986,583.206482 
	C134.191635,581.215759 132.590210,580.800537 131.652191,580.040649 
	C123.241493,573.227417 115.032410,566.133972 106.295845,559.765198 
	C100.304291,555.397522 100.691254,549.530945 100.129761,543.529053 
	C102.799446,542.895447 103.985565,544.598694 105.370514,545.609009 
	C111.827888,550.319580 118.380882,554.925659 124.547897,559.996948 
	C127.845390,562.708618 129.711716,562.046509 132.312927,559.167053 
	C139.902649,550.765564 147.755692,542.601807 155.514236,534.353088 
	C156.514252,533.289856 157.232666,531.855713 158.903122,531.625122 
	C162.746994,537.314270 162.140472,544.089233 157.976715,548.971924 
	C151.739212,556.286377 144.428650,562.663696 138.689743,570.698181 
	C142.036621,574.525146 145.928406,577.440674 150.011337,579.852112 
	C153.152145,581.707214 156.811829,579.655579 160.189529,579.211975 
	C166.526886,578.379700 170.421097,582.679382 168.529953,588.839417 
	C167.897522,590.899414 166.004944,590.857483 164.469894,591.093933 
	C152.308868,592.966797 140.132736,594.741516 127.531784,596.644531 
z"/>
<path fill="#000000" opacity="1.000000" stroke="none" 
	d="
M863.671753,469.100159 
	C861.994690,464.436890 863.419983,461.175140 866.373718,457.883270 
	C871.932739,451.687866 877.021790,445.073303 882.471497,438.776001 
	C884.666931,436.239136 884.497009,434.464325 881.639648,432.832245 
	C881.062988,432.502869 880.463135,432.157349 880.001038,431.692871 
	C874.739746,426.405151 868.680725,425.343323 861.796448,428.048737 
	C857.137573,429.879608 854.987793,428.248413 854.052124,423.220703 
	C853.220703,418.753113 854.133423,417.109650 858.740112,416.221283 
	C883.413940,411.463348 908.048828,406.490601 932.627686,401.265106 
	C937.458130,400.238159 937.558899,403.216766 938.148315,406.045227 
	C938.759644,408.978607 940.235718,412.225677 935.115173,413.174347 
	C921.367371,415.721161 907.678772,418.587860 893.969788,421.343506 
	C892.220886,421.695068 890.366028,421.811005 888.863647,423.200256 
	C890.056519,425.879639 892.632446,426.956604 894.701477,428.488617 
	C902.734680,434.436646 910.826904,440.307098 918.973328,446.099304 
	C924.298584,449.885559 923.097229,455.610626 924.420471,461.193420 
	C920.151917,460.507263 917.854309,457.915161 915.137085,456.175690 
	C909.666809,452.673828 904.277588,449.034943 898.985596,445.269043 
	C895.967285,443.121216 893.895325,443.348938 891.464111,446.348022 
	C884.228516,455.273865 876.721863,463.980255 869.296631,472.751709 
	C868.379272,473.835419 867.823914,475.465668 865.806702,475.340790 
	C863.949219,473.859467 864.312378,471.499908 863.671753,469.100159 
z"/>
<path fill="#000000" opacity="1.000000" stroke="none" 
	d="
M719.700500,830.891296 
	C731.520264,821.945251 743.059753,813.245483 754.999573,804.243835 
	C751.195801,799.264832 746.212708,798.162659 741.075562,798.708496 
	C730.661438,799.814880 723.401978,805.504578 720.433655,815.632690 
	C718.996277,820.537292 716.184265,819.006714 713.109436,818.455688 
	C709.297119,817.772583 709.388977,815.318909 710.087708,812.461670 
	C713.961914,796.619324 732.627869,784.798401 749.121582,787.743469 
	C764.524109,790.493713 775.972534,806.460571 774.347717,822.926025 
	C773.197815,834.579712 762.806091,846.046326 750.612610,849.116394 
	C739.039856,852.030212 725.856323,846.820007 719.134949,836.759216 
	C717.773254,834.721069 717.116028,832.902222 719.700500,830.891296 
M747.625671,821.151123 
	C742.508728,825.250854 736.872742,828.729309 732.182007,833.372375 
	C738.730042,840.591614 748.496277,840.808167 756.637268,834.438293 
	C762.101196,830.163086 766.776062,819.703064 760.500793,811.626099 
	C756.398254,814.637939 752.280457,817.660950 747.625671,821.151123 
z"/>
<path fill="#000000" opacity="1.000000" stroke="none" 
	d="
M174.631287,383.368042 
	C174.862411,379.287109 175.258514,375.602234 173.796600,372.089020 
	C171.832062,367.367920 176.001816,367.522247 178.385742,366.285248 
	C181.431641,364.704803 183.086197,366.152008 183.979858,369.004333 
	C187.835938,381.312073 185.092056,392.524902 177.354843,402.325897 
	C165.697372,417.092896 145.424225,418.072693 131.443115,405.019928 
	C118.395569,392.838745 118.439209,372.733521 131.540680,360.011383 
	C139.630676,352.155640 154.156052,349.819946 164.225204,354.506744 
	C167.388840,355.979309 166.575623,357.872955 165.739975,360.199677 
	C161.632278,371.636902 157.583420,383.095276 153.538818,394.555023 
	C152.829361,396.565155 152.239288,398.617462 151.606461,400.611298 
	C160.973801,404.667145 170.594025,397.454498 174.631287,383.368042 
M143.931808,394.351562 
	C147.422302,384.256226 151.839661,374.457733 154.380173,363.964478 
	C145.044724,362.266663 138.178955,365.901947 134.324219,374.102203 
	C130.565567,382.098083 132.258118,390.760345 138.483887,395.874878 
	C140.639053,397.645416 142.470123,398.557312 143.931808,394.351562 
z"/>
<path fill="#000000" opacity="1.000000" stroke="none" 
	d="
M670.001343,188.703934 
	C664.334229,173.464310 673.657104,156.995926 684.954895,150.591431 
	C696.976624,143.776505 712.834778,146.469360 722.819580,157.145462 
	C731.575134,166.507156 732.876282,182.714493 725.981689,193.401337 
	C723.823730,196.746170 721.745789,195.569870 719.293091,194.192657 
	C708.696350,188.242538 698.092224,182.305359 687.464478,176.410828 
	C685.604431,175.379150 683.856262,173.982574 681.049683,173.961746 
	C679.126221,180.409439 680.071289,186.364578 684.467957,191.499878 
	C690.105469,198.084656 697.392334,201.853180 706.099121,200.410904 
	C712.251526,199.391754 711.083984,203.754440 711.850647,206.650360 
	C712.947083,210.792114 709.448669,210.796844 706.976746,211.136551 
	C692.328064,213.149536 676.682190,203.718002 670.001343,188.703934 
M686.757385,164.569443 
	C686.975098,166.174362 688.392639,166.532227 689.511169,167.156174 
	C697.326538,171.515625 705.140076,175.879089 712.995178,180.166122 
	C714.522095,180.999451 715.938721,182.424454 717.949829,181.827637 
	C721.360840,173.877136 718.636597,165.672440 711.015198,160.798477 
	C702.480896,155.340744 693.332947,156.540619 686.757385,164.569443 
z"/>
<path fill="#000000" opacity="1.000000" stroke="none" 
	d="
M225.970947,300.314026 
	C208.612122,304.749512 191.476807,294.823486 186.650162,277.867920 
	C182.228043,262.333496 191.692429,245.241852 207.547668,240.436218 
	C218.346725,237.163055 227.811722,240.278992 236.455399,246.953766 
	C239.388916,249.219070 238.015411,251.132080 236.311966,253.215134 
	C228.414627,262.872375 220.544525,272.551910 212.661774,282.221100 
	C211.421768,283.742157 209.944260,285.120270 209.457596,287.543945 
	C214.051147,290.619049 218.947098,290.449524 223.767380,288.975647 
	C232.634262,286.264435 239.600494,277.482208 239.750854,268.174194 
	C239.830399,263.249817 242.279358,262.911469 246.018341,262.899689 
	C250.781235,262.884705 251.120209,266.072693 250.694641,269.332184 
	C248.726837,284.403870 240.193375,294.425232 225.970947,300.314026 
M213.464401,266.983032 
	C216.936996,262.223480 221.408752,258.205017 224.436890,253.070496 
	C215.807358,247.551880 205.514969,249.959152 199.645630,258.481934 
	C194.500626,265.952942 195.286469,275.734680 201.766617,280.631927 
	C206.037048,276.773621 209.174942,271.839203 213.464401,266.983032 
z"/>
<path fill="#000000" opacity="1.000000" stroke="none" 
	d="
M698.956238,842.373657 
	C696.852234,836.170715 688.717224,832.679810 680.672058,834.603088 
	C673.117554,836.408936 666.512573,839.970032 663.462646,847.628357 
	C661.624634,852.243774 659.085571,850.163391 656.350464,849.176392 
	C653.251343,848.058105 652.321716,846.433350 653.706787,843.119202 
	C658.648438,831.295105 675.264587,821.478333 688.330627,822.924927 
	C702.904480,824.538513 713.746765,835.360901 716.414978,849.928406 
	C719.637451,867.521545 706.527039,880.545532 694.715759,884.228027 
	C680.702087,888.597046 666.256409,882.277344 659.041687,868.613953 
	C657.169556,865.068359 657.987427,863.350464 661.408691,861.649231 
	C673.917480,855.429565 686.313416,848.982971 698.956238,842.373657 
M705.536743,855.040161 
	C705.061279,853.671631 705.177979,852.058655 703.367126,850.542847 
	C693.046082,855.790466 682.518860,861.142944 672.122986,866.428528 
	C674.576599,873.286438 684.019043,875.948181 690.560181,874.479065 
	C699.463013,872.479553 704.894348,865.724243 705.536743,855.040161 
z"/>
<path fill="#000000" opacity="1.000000" stroke="none" 
	d="
M423.541107,161.517441 
	C430.920776,160.337845 437.032257,157.731262 441.389313,151.823502 
	C444.096771,148.152512 445.974091,151.785248 447.991699,152.864151 
	C450.312317,154.105148 451.385803,155.725403 449.465515,158.477554 
	C443.822723,166.564682 435.692719,170.538666 426.404663,171.955673 
	C414.006256,173.847168 403.009583,170.616241 395.655426,159.853333 
	C388.237152,148.996521 387.171265,137.208282 393.328613,125.326324 
	C398.522247,115.304016 412.823242,108.296181 423.731323,110.007568 
	C437.280426,112.133308 447.481903,121.621056 449.958618,134.069763 
	C450.727905,137.936523 448.456787,138.582321 445.678314,139.271744 
	C433.729980,142.236450 421.793671,145.249771 409.858368,148.266663 
	C408.116425,148.706985 406.403473,149.262207 404.731384,149.748489 
	C405.801544,157.082581 413.120148,161.651978 423.541107,161.517441 
M418.836670,120.416138 
	C405.657257,123.205498 399.004578,131.116425 402.427765,140.646957 
	C413.728851,137.870377 425.082489,135.080902 436.440308,132.290390 
	C434.516968,124.779823 428.854980,120.928978 418.836670,120.416138 
z"/>
<path fill="#000000" opacity="1.000000" stroke="none" 
	d="
M154.898529,718.056152 
	C151.373993,713.734924 148.964615,709.162598 146.964783,704.393188 
	C142.370544,693.436401 145.097488,683.422241 155.074432,676.867554 
	C165.662766,669.911011 177.271622,664.713440 188.375473,658.639099 
	C191.468460,656.947083 192.541382,658.919128 193.643661,661.139465 
	C195.231247,664.337341 198.418976,667.732544 191.534760,669.924072 
	C201.485291,674.509277 206.976242,681.850220 209.491867,691.480835 
	C211.865875,700.569336 208.650558,708.588379 201.227188,712.438354 
	C193.081146,716.662964 184.808456,714.739746 178.509293,707.168152 
	C173.978943,701.722717 171.535782,695.065857 167.981140,689.053955 
	C165.440994,684.757874 164.182281,684.523987 160.474594,687.996155 
	C157.196304,691.066284 155.864532,694.773621 156.893661,699.287354 
	C158.700668,707.213074 163.247559,713.136475 170.064941,717.334412 
	C172.532379,718.853760 174.111938,720.195923 171.877518,723.144897 
	C170.001648,725.620605 168.877945,729.086670 164.618149,726.374451 
	C161.067566,724.113892 157.890930,721.486328 154.898529,718.056152 
M179.277435,691.265808 
	C181.003296,694.667114 182.696136,698.100098 185.570419,700.726318 
	C188.141861,703.075745 191.214005,703.661621 194.345749,702.336853 
	C197.657425,700.935913 199.516174,698.154785 199.559723,694.528564 
	C199.656540,686.466431 191.073044,677.132385 183.094803,676.480896 
	C179.681473,676.202209 176.760162,677.813293 174.699615,680.083374 
	C172.893417,682.073242 175.686615,683.883545 176.439270,685.755493 
	C177.115234,687.436768 178.108032,688.990601 179.277435,691.265808 
z"/>
<path fill="#000000" opacity="1.000000" stroke="none" 
	d="
M477.462341,881.565796 
	C478.062592,876.842529 478.681396,872.566345 479.062134,868.269104 
	C479.405334,864.395813 481.308167,863.041870 485.032654,863.930725 
	C486.957336,864.390137 488.916779,864.704041 491.295074,865.168518 
	C491.602081,873.231323 489.861023,881.037964 488.940765,888.875549 
	C486.944305,905.878540 484.437103,922.821228 482.392517,939.819153 
	C481.928619,943.675903 480.697906,944.974609 476.710724,944.415833 
	C460.909607,942.201172 445.083557,940.147400 429.238892,938.269409 
	C423.671265,937.609497 425.611908,933.939819 425.686981,930.884644 
	C425.775818,927.272705 427.702698,926.547974 431.004181,927.017456 
	C443.007202,928.724670 455.037567,930.240051 467.061523,931.797668 
	C468.014313,931.921082 468.996948,931.813843 470.487274,931.813843 
	C471.550476,924.340515 472.680145,916.997009 473.609314,909.628296 
	C474.107513,905.677490 471.005249,905.651794 468.351227,905.295715 
	C458.470093,903.970215 448.601776,902.533386 438.699829,901.387268 
	C435.362091,901.000916 434.106781,899.436035 435.035370,896.471191 
	C435.823425,893.954956 434.349060,889.584290 439.957306,890.478699 
	C449.304199,891.969360 458.748749,892.837402 468.115173,894.218750 
	C475.146912,895.255920 475.860535,894.881714 476.629791,887.929626 
	C476.848724,885.950928 477.126434,883.978821 477.462341,881.565796 
z"/>
<path fill="#000000" opacity="1.000000" stroke="none" 
	d="
M279.531555,172.237335 
	C292.712708,167.966187 304.036316,170.446121 313.012756,180.562241 
	C321.612488,190.253830 324.412109,201.428070 319.229462,213.849396 
	C313.088898,228.566589 295.936340,237.027985 280.564117,233.007629 
	C266.298431,229.276672 255.789917,213.916290 257.825623,198.515366 
	C259.518280,185.709702 267.467102,177.356277 279.531555,172.237335 
M271.372040,209.952271 
	C277.339508,220.275879 286.167572,224.850220 295.009308,222.200058 
	C306.260529,218.827728 312.322083,207.982193 308.941742,197.271759 
	C305.281586,185.674866 293.665680,178.943085 283.387970,182.462524 
	C271.653625,186.480789 266.714050,197.226791 271.372040,209.952271 
z"/>
<path fill="#000000" opacity="1.000000" stroke="none" 
	d="
M831.018005,355.068604 
	C813.856934,340.468872 812.175415,318.634125 827.252686,305.251343 
	C836.998840,296.600494 848.526428,293.813477 860.676575,299.170898 
	C872.976807,304.594452 879.382812,314.860229 880.273926,328.229675 
	C881.125916,341.011597 875.275452,350.395813 864.311401,356.540863 
	C853.153076,362.794739 842.053101,362.524872 831.018005,355.068604 
M828.410400,326.115753 
	C827.903259,340.741425 836.803528,349.967499 850.200317,348.703339 
	C860.150452,347.764374 869.028503,338.725433 869.546143,329.007080 
	C870.041138,319.713623 862.541992,310.456757 853.047485,308.641388 
	C842.964600,306.713531 832.360840,313.926849 828.410400,326.115753 
z"/>
<path fill="#000000" opacity="1.000000" stroke="none" 
	d="
M835.003174,765.965454 
	C839.510803,769.030029 836.575439,771.218567 834.802612,773.818542 
	C832.015320,777.906616 829.281006,777.112305 825.978516,773.628052 
	C825.414734,776.175903 824.987549,778.175659 824.528748,780.168091 
	C822.634583,788.392761 817.746338,794.590332 810.937317,799.204224 
	C803.179260,804.461243 794.727295,804.826233 786.935059,799.814026 
	C775.411560,792.401733 766.133545,782.208923 756.234802,772.857483 
	C752.681213,769.500549 758.031067,767.720215 759.373230,765.309570 
	C760.604126,763.098450 762.487000,762.601807 764.681885,764.626587 
	C770.797607,770.268311 777.013611,775.801270 783.193848,781.372986 
	C784.676880,782.709961 786.129150,784.086243 787.673523,785.349060 
	C796.394714,792.480774 803.336914,792.477356 810.090027,785.379150 
	C817.446045,777.647339 817.928284,767.893921 810.613647,760.376770 
	C804.241333,753.828125 797.241943,747.885132 790.455444,741.745483 
	C785.048462,736.853821 785.148743,736.957947 789.828491,731.630066 
	C792.449524,728.645996 794.297485,728.785339 797.125732,731.409851 
	C809.567383,742.954773 822.190430,754.304138 835.003174,765.965454 
z"/>
<path fill="#000000" opacity="1.000000" stroke="none" 
	d="
M865.172241,575.941040 
	C881.932068,580.451782 898.325012,584.831726 914.690918,589.310303 
	C917.143250,589.981506 920.944397,589.623657 919.496338,594.304199 
	C918.356873,597.987610 918.455139,602.890259 912.205505,600.770203 
	C911.967346,600.689453 911.611450,600.955933 910.880371,601.210083 
	C913.533630,608.144409 914.299805,615.264404 912.356689,622.555664 
	C908.411804,637.357910 897.404541,644.288818 882.462891,640.877563 
	C871.921082,638.470886 861.538269,635.369385 851.000244,632.944031 
	C845.225952,631.615051 847.091919,628.130554 847.723816,624.534973 
	C848.440674,620.456177 850.554016,619.996277 854.111145,620.994080 
	C863.400269,623.599670 872.705566,626.185120 882.099121,628.371765 
	C896.491882,631.722107 906.376099,621.356567 902.675415,607.017822 
	C900.924438,600.233337 895.726624,597.053406 889.581482,595.251709 
	C880.645935,592.631897 871.617188,590.331055 862.634766,587.869934 
	C860.371094,587.249695 857.427124,586.595886 858.909851,583.439697 
	C860.250061,580.586914 858.163635,574.666138 865.172241,575.941040 
z"/>
<path fill="#000000" opacity="1.000000" stroke="none" 
	d="
M402.903137,857.861816 
	C390.169159,853.097412 381.635864,856.956726 377.328033,869.259766 
	C374.358093,877.741882 371.335144,886.221191 368.834991,894.846436 
	C367.314148,900.093201 364.510529,898.758484 360.917023,897.700745 
	C356.810181,896.491882 355.793091,894.821411 357.305939,890.534912 
	C362.788635,875.000488 367.797577,859.299438 373.108643,843.703247 
	C373.914490,841.336853 373.644440,837.599731 378.244415,838.681641 
	C384.494843,840.151794 385.374756,841.073547 384.660675,846.651367 
	C385.890442,847.957581 387.160950,846.910339 388.333008,846.594971 
	C396.879669,844.295227 404.887360,845.791260 412.350403,850.210815 
	C421.870972,855.848877 425.866089,865.793030 422.653229,876.955017 
	C419.478271,887.985352 415.569427,898.802368 412.191956,909.777405 
	C410.740784,914.492798 407.881500,913.220764 404.752045,912.179321 
	C401.544525,911.111877 398.870819,910.306030 400.636902,905.675232 
	C403.718353,897.595459 406.243011,889.300659 408.901764,881.063965 
	C409.716125,878.541138 410.408112,875.944275 410.805145,873.328064 
	C411.836090,866.534973 409.759888,861.160889 402.903137,857.861816 
z"/>
<path fill="#000000" opacity="1.000000" stroke="none" 
	d="
M155.881439,609.591187 
	C157.194290,599.687012 159.018509,598.854919 166.994858,604.092712 
	C177.011017,610.669983 182.533463,625.108276 180.017715,638.140625 
	C177.733398,649.973999 167.577530,659.544189 154.639328,662.055359 
	C142.204529,664.468811 129.771851,659.026550 123.009705,647.744934 
	C117.025307,637.760864 115.201645,627.236633 120.815392,616.391602 
	C121.844002,614.404358 123.044701,610.930115 126.234627,613.496948 
	C128.663300,615.451233 133.545746,616.264343 130.805771,621.719360 
	C126.327271,630.635559 128.940201,641.140320 136.490250,646.715332 
	C144.067688,652.310486 156.669235,651.135803 164.136749,644.138184 
	C170.702271,637.985779 171.522827,627.218201 166.493576,618.836487 
	C163.925262,614.556152 158.970047,613.504395 155.881439,609.591187 
z"/>
<path fill="#000000" opacity="1.000000" stroke="none" 
	d="
M185.749725,320.221497 
	C179.845459,312.341614 174.138123,304.758759 168.450729,297.161041 
	C163.246719,290.209045 163.319382,289.275909 169.489182,282.341248 
	C171.535446,282.190887 172.244400,283.904358 173.197174,285.173767 
	C184.589737,300.352509 195.917068,315.580383 207.362503,330.719055 
	C209.180008,333.123016 209.976807,335.241058 207.967392,337.860901 
	C205.872742,340.591827 205.356583,344.834961 200.230316,344.277740 
	C180.382309,342.120514 160.510620,340.181549 140.650528,338.134338 
	C140.032455,338.070618 139.444839,337.711365 138.885773,337.505646 
	C139.666199,329.905060 142.960449,326.895233 149.581955,327.586243 
	C163.299469,329.017761 177.015747,330.460968 190.734283,331.882690 
	C191.511108,331.963196 192.303543,331.893066 193.698303,331.893066 
	C191.559723,327.388885 188.559174,324.077576 185.749725,320.221497 
z"/>
<path fill="#000000" opacity="1.000000" stroke="none" 
	d="
M225.059967,713.952026 
	C235.019897,725.868042 233.738556,735.638611 221.437149,744.667908 
	C213.410034,750.559753 205.490982,756.598877 197.855667,762.322998 
	C197.678833,764.477356 198.803986,765.377502 199.540833,766.440063 
	C202.617874,770.877075 201.683899,773.790039 196.681671,775.774475 
	C194.238510,776.743774 193.179703,775.042969 192.305984,773.568970 
	C190.028748,769.727173 187.895309,769.138306 184.152573,772.242493 
	C178.003845,777.342102 177.885559,777.011536 173.360397,770.365356 
	C171.669861,767.882446 171.953674,766.447815 174.261246,764.588257 
	C181.320786,758.899048 181.250214,758.812317 175.812729,751.465515 
	C175.317474,750.796265 174.904373,750.049500 174.329666,749.458801 
	C171.686554,746.742188 171.709656,744.707397 175.075394,742.285400 
	C178.186813,740.046326 180.083832,739.961670 182.416229,743.195801 
	C184.712631,746.380127 186.638550,749.947327 190.384399,752.830017 
	C199.346390,745.976501 208.461166,739.322083 217.183456,732.187744 
	C220.912247,729.137756 220.756943,724.839355 217.476822,721.099976 
	C215.646500,719.013367 213.310760,717.370056 211.214615,715.537354 
	C213.913589,706.236694 216.282532,705.919556 225.059967,713.952026 
z"/>
<path fill="#000000" opacity="1.000000" stroke="none" 
	d="
M770.186157,188.787491 
	C771.933105,190.103500 773.321228,191.329910 774.880554,192.273285 
	C778.627380,194.540161 778.764709,196.823334 775.911743,200.209122 
	C773.669800,202.869751 772.045593,203.319839 769.431580,200.993698 
	C767.324768,199.118942 764.776123,197.736130 762.697510,195.835464 
	C760.309326,193.651688 758.607239,193.723495 756.637573,196.376068 
	C751.278503,203.593048 745.679749,210.632156 740.330750,217.856339 
	C735.083496,224.942947 736.903137,230.895920 745.318298,233.623291 
	C748.596619,234.685806 749.521423,235.955368 748.490784,239.330948 
	C747.525696,242.491699 746.542297,244.217911 742.674194,243.433640 
	C726.838379,240.222870 720.413940,224.146622 730.067932,211.345810 
	C736.371704,202.987152 742.784241,194.710510 749.183044,186.351471 
	C747.372986,182.351471 738.283508,180.929398 745.491821,174.352127 
	C750.671387,169.625931 751.926453,177.075027 756.349976,176.731857 
	C758.272339,175.843491 759.525879,173.186325 761.123901,170.940720 
	C762.944275,168.382645 764.605286,167.884262 767.250488,169.943329 
	C774.785645,175.808701 773.677612,174.849304 768.976196,180.313080 
	C766.104126,183.650909 765.608459,186.259949 770.186157,188.787491 
z"/>
<path fill="#000000" opacity="1.000000" stroke="none" 
	d="
M285.545105,880.613403 
	C298.486572,859.058228 311.220245,837.804626 324.028076,816.595886 
	C325.068787,814.872559 325.665710,811.841919 328.334961,812.483276 
	C331.347778,813.207153 334.203156,814.901733 336.316376,817.313843 
	C337.380676,818.528625 336.173187,819.811462 335.505646,820.924561 
	C322.249451,843.028015 308.937469,865.098267 295.769562,887.254150 
	C293.856567,890.472900 291.853149,890.340332 289.350220,888.428345 
	C286.902618,886.558594 281.834473,886.000977 285.545105,880.613403 
z"/>
<path fill="#000000" opacity="1.000000" stroke="none" 
	d="
M254.012024,246.987823 
	C239.923645,232.116730 226.217041,217.369308 212.155701,202.968262 
	C208.392181,199.113831 209.889465,197.204758 212.942627,194.216354 
	C215.970795,191.252411 217.876297,190.867279 220.978409,194.206299 
	C238.188614,212.730728 255.578857,231.088394 272.981598,249.432831 
	C275.141479,251.709595 275.760376,253.716019 272.799347,255.422974 
	C270.197662,256.922760 268.667236,262.792969 264.172394,257.787048 
	C260.950195,254.198502 257.570312,250.751541 254.012024,246.987823 
z"/>
<path fill="#000000" opacity="1.000000" stroke="none" 
	d="
M338.161896,853.250610 
	C342.183838,845.175537 346.213043,837.513428 349.818359,829.656799 
	C352.073883,824.741638 354.845551,827.052063 357.885223,828.346924 
	C361.114929,829.722839 362.659973,831.143494 360.696289,835.047791 
	C349.266174,857.774048 338.014984,880.591125 326.863251,903.455505 
	C325.109985,907.050232 323.112915,907.056030 320.199341,905.258057 
	C317.415802,903.540344 313.296387,903.078247 316.004272,897.812134 
	C323.532684,883.171326 330.687561,868.338379 338.161896,853.250610 
z"/>
<path fill="#000000" opacity="1.000000" stroke="none" 
	d="
M652.448608,889.640015 
	C653.034302,891.444458 653.518433,892.861816 653.957031,894.293030 
	C655.971680,900.867432 655.758728,900.710083 649.442505,903.090027 
	C643.683228,905.260010 644.298218,900.307678 642.143005,896.942932 
	C639.549377,903.480591 634.862793,907.368652 629.041382,909.978577 
	C626.604370,911.071167 623.978394,912.000305 623.372559,908.138306 
	C622.921936,905.265625 618.700317,901.981018 624.412354,899.488342 
	C635.259521,894.754700 638.438538,887.620667 635.022400,876.118896 
	C632.654602,868.146790 629.953125,860.274170 627.439026,852.344971 
	C625.492004,846.204346 625.513123,846.180176 631.793457,844.122437 
	C633.183533,843.666931 634.624573,843.366943 636.710327,842.820251 
	C641.972900,858.470520 647.149475,873.864868 652.448608,889.640015 
z"/>
<path fill="#000000" opacity="1.000000" stroke="none" 
	d="
M894.272461,359.118347 
	C899.488342,359.497009 899.216370,363.863678 899.926758,366.840576 
	C900.861084,370.756012 896.219299,370.125519 894.037231,372.254181 
	C900.516968,374.815796 904.730408,379.477142 907.455505,385.592957 
	C908.479980,387.892303 908.703613,390.085907 905.735291,390.631317 
	C902.972229,391.139038 900.113464,395.518097 897.219116,390.608307 
	C889.592712,377.671112 884.557495,375.832672 870.166565,380.813751 
	C862.786682,383.368195 855.411926,385.979309 848.204224,388.972687 
	C844.270081,390.606567 842.701233,389.212067 841.797119,385.653259 
	C841.016296,382.579803 837.966064,379.482361 843.745850,377.473663 
	C860.546143,371.634918 877.187988,365.340393 894.272461,359.118347 
z"/>
<path fill="#000000" opacity="1.000000" stroke="none" 
	d="
M463.349915,102.053650 
	C468.802307,100.678917 471.707886,102.598396 472.164917,108.459396 
	C476.413147,104.620178 480.260284,101.524704 485.178223,100.094696 
	C491.983673,98.115829 493.280762,98.973198 493.294403,105.918587 
	C493.296661,107.063408 493.139923,108.208542 493.068298,109.193649 
	C492.645050,109.560974 492.427307,109.915039 492.157837,109.960197 
	C475.288483,112.786926 472.915894,122.735939 474.749084,136.829041 
	C475.691315,144.072495 476.339294,151.354568 477.092743,158.622055 
	C477.597137,163.487518 473.686401,162.666687 471.002411,163.124619 
	C468.102814,163.619324 465.282593,163.749588 464.921204,159.476105 
	C463.925720,147.704712 462.786713,135.945251 461.664154,124.184921 
	C461.143188,118.726868 460.550293,113.275345 459.947327,107.825584 
	C459.660126,105.229797 459.337555,102.678429 463.349915,102.053650 
z"/>
<path fill="#000000" opacity="1.000000" stroke="none" 
	d="
M845.351562,731.603027 
	C847.838196,733.317627 850.024902,734.833069 852.223389,736.331116 
	C858.169373,740.382324 858.281006,743.582031 852.813477,748.510620 
	C851.338013,749.840576 850.225830,749.450623 848.859619,748.518311 
	C833.753540,738.209351 818.643066,727.906738 803.501892,717.649414 
	C801.557190,716.332031 801.477295,715.036621 802.588989,713.061523 
	C806.560913,706.004639 807.380981,705.736694 814.148254,710.326477 
	C824.467773,717.325195 834.755798,724.370422 845.351562,731.603027 
z"/>
<path fill="#000000" opacity="1.000000" stroke="none" 
	d="
M299.472839,825.669617 
	C298.483368,833.627563 295.088318,835.175781 289.166840,830.781128 
	C283.700592,826.724365 278.266418,822.621887 272.724976,818.670166 
	C270.269958,816.919495 269.304047,815.327148 271.625610,812.668518 
	C273.674133,810.322327 274.988220,806.945068 279.000275,810.053955 
	C285.690613,815.238220 292.493652,820.277100 299.472839,825.669617 
z"/>
<path fill="#000000" opacity="1.000000" stroke="none" 
	d="
M570.957153,875.399170 
	C566.381165,877.144409 562.694275,876.648560 560.118652,872.630493 
	C557.815308,869.037109 558.602417,864.454590 561.804749,861.821289 
	C565.003235,859.191223 569.694153,859.401733 572.714172,862.310913 
	C575.757629,865.242554 576.102600,869.606384 573.484802,873.169006 
	C572.907776,873.954285 572.051270,874.534180 570.957153,875.399170 
z"/>
<path fill="#000000" opacity="1.000000" stroke="none" 
	d="
M544.879150,159.857605 
	C540.890381,162.876251 537.201233,163.046005 533.842896,159.708939 
	C530.869324,156.754181 530.813293,153.085175 532.643311,149.625366 
	C534.489258,146.135468 537.803650,145.056931 541.574524,145.977737 
	C547.392151,147.398300 548.958679,153.491364 544.879150,159.857605 
z"/>
<path fill="#000000" opacity="1.000000" stroke="none" 
	d="
M874.794434,761.685547 
	C869.195984,764.577087 865.199646,763.672058 863.180603,759.386597 
	C861.165649,755.109924 863.219543,750.069275 867.661743,748.330383 
	C870.889099,747.067139 873.638428,748.004883 875.624023,750.559570 
	C878.459839,754.208252 877.882263,757.928711 874.794434,761.685547 
z"/>
</svg>